<svg xmlns="http://www.w3.org/2000/svg" xmlns:xlink="http://www.w3.org/1999/xlink" width="81px" height="65px" viewBox="0 0 81 65"><title>CNBC_logo</title><g id="Page-1" stroke="none" stroke-width="1" fill="none" fill-rule="evenodd"><g id="CNBC_logo" transform="translate(0.1915, 0.238)" fill-rule="nonzero"><path d="M39.997197,6.10280127 C38.7500616,2.98890117 35.7118458,-0.374083533 30.0214839,0.0878987856 C22.7728021,0.875905691 20.5139175,7.8225353 21.6095701,11.9666777 C18.7224946,10.0117858 13.8135186,9.1522042 9.5287382,12.8224922 C3.9963658,18.3682206 6.95558686,25.868156 9.99688485,27.6671131 C6.64508726,27.3568418 1.34764434,29.6216624 0.175736637,35.5462689 C-1.07094211,42.9021416 4.53654379,47.1903466 9.99688485,47.1903466 L70.5457921,47.1903466 C76.8598929,47.1903466 80.3630591,41.7279508 79.9701401,36.576397 C79.350739,29.8531673 73.1983948,27.2736233 69.8423735,27.8263583 C72.6462306,26.2619882 76.390833,18.9136497 70.6968182,13.1367589 C66.17688,8.83748089 60.4149433,10.401851 58.3889334,12.276949 C59.4810473,8.68542741 57.690081,1.2612905 50.3592081,0.0870997057 C49.8523632,0.030365035 49.3644678,0 48.8995175,0 C43.3033329,0.000799079869 40.7869162,4.09163139 39.997197,6.10280127" id="path3113" fill="#FFFFFF"></path><path d="M10.5370628,13.9930301 C7.3404009,16.8868407 6.17694061,23.4438618 11.9395622,27.2769338 L34.9292042,43.0495147 L23.7822683,17.5117212 C21.4464437,11.4854033 15.0563161,10.1712593 10.5370628,13.9930301" id="path3115" fill="#F37021"></path><path d="M30.3268466,1.57658458 C26.5898925,1.65272548 20.9784112,6.10280127 23.4756499,12.8981765 L35.0046601,40.0881247 L39.0558809,11.4895128 C39.9933157,4.3834097 34.6156224,1.10307268 30.3268466,1.57658458" id="path3117" fill="#CC004C"></path><path d="M40.8549522,10.3987688 L43.0349562,10.3987688 C43.0349562,10.3987688 44.1991014,10.3987688 44.3575475,10.947965 C43.4996782,11.6485297 41.1646527,11.7363143 41.4746957,15.4784054 L45.1393901,40.0842435 L56.5896339,12.8229488 C58.931737,6.73601499 54.0156834,1.65249717 49.6548763,1.49713321 C49.4512251,1.48252147 49.2467748,1.47064942 49.0351328,1.47064942 C45.1211254,1.47064942 40.635776,4.31514545 40.8549522,10.3987688" id="path3119" fill="#6460AA"></path><path d="M56.1286789,17.7433402 L45.2986353,42.9747437 L68.2815422,27.1189443 C73.5794417,23.3612141 72.724997,17.3535034 69.7593833,14.3838943 C68.5161292,12.9861894 66.2333863,11.9065182 63.8152565,11.9065182 C60.9584318,11.9059476 57.9010381,13.4212313 56.1286789,17.7433402" id="path3121" fill="#0089D0"></path><path d="M65.7082767,30.7089818 L44.1245587,45.7849934 L70.700357,45.7849934 C76.1527072,45.7849934 79.6565583,40.1633524 78.0989233,35.0044928 C77.0556675,31.7618266 73.9691644,29.2164148 70.386661,29.2127619 C68.8786832,29.2133326 67.279496,29.6675525 65.7082767,30.7089818" id="path3123" fill="#0DB14B"></path><path d="M9.91777594,45.7849934 L36.1014543,45.7849934 L14.5122569,30.7089818 C9.52462864,27.5044433 3.91645781,29.3795412 1.89181773,34.6974178 C0.175622483,40.7849224 4.4606312,45.7849934 9.91777594,45.7849934" id="path3125" fill="#FCB711"></path><path d="M0.0844132237,56.6958583 C0.0844132237,59.263416 2.18336773,63.9370059 10.1979105,63.9370059 C17.5871162,63.9370059 19.9208861,60.5463958 19.9208861,58.9917289 L14.2002733,58.9917289 C14.2002733,58.9917289 13.9285861,61.0457066 10.7015591,61.0457066 C7.47247739,61.0457066 6.59919724,58.3504102 6.59919724,56.791862 C6.59919724,55.2392498 7.47247739,52.6895001 10.7015591,52.6895001 C13.9285861,52.6895001 14.2002733,54.4777267 14.2002733,54.4777267 L19.9208861,54.4777267 C19.9208861,52.9212333 18.208572,49.5784539 10.1979105,49.5784539 C2.18336773,49.5784539 0.0844132237,54.5558082 0.0844132237,56.6958583" id="Path" fill="#292526"></path><path d="M60.0788732,56.6958583 C60.0788732,59.263416 62.1799966,63.9370059 70.1923705,63.9370059 C77.5808913,63.9370059 79.9155743,60.5463958 79.9155743,58.9917289 L74.1989569,58.9917289 C74.1989569,58.9917289 73.9260141,61.0457066 70.698188,61.0457066 C67.4687638,61.0457066 66.5945704,58.3504102 66.5945704,56.791862 C66.5945704,55.2392498 67.4687638,52.6895001 70.698188,52.6895001 C73.9260141,52.6895001 74.1989569,54.4777267 74.1989569,54.4777267 L79.9155743,54.4777267 C79.9155743,52.9212333 78.2050868,49.5784539 70.1923705,49.5784539 C62.1801108,49.5784539 60.0788732,54.5558082 60.0788732,56.6958583" id="Path" fill="#292526"></path><polyline id="Path" fill="#292526" points="35.5553403 49.8181778 35.5553403 58.5099979 28.8977493 49.8181778 21.4085445 49.8181778 21.4085445 63.5852966 26.5428609 63.5852966 26.5428609 54.7935916 33.0839004 63.5852966 40.6899992 63.5852966 40.6899992 49.8181778 35.5553403 49.8181778"></polyline><path d="M52.0080524,60.2962838 L52.0080524,60.3144344 L47.730007,60.3144344 L47.730007,57.7866023 L52.0080524,57.7866023 L52.0080524,57.7948214 C52.9215148,57.7948214 53.6597504,58.3562321 53.6597504,59.0475503 C53.6597504,59.7371562 52.9215148,60.2962838 52.0080524,60.2962838 M47.7692761,52.4957803 L51.8913867,52.4957803 L51.8913867,52.5016022 C52.5897825,52.5016022 53.1561018,52.9610731 53.1561018,53.5265933 C53.1561018,54.0942825 52.5897825,54.549758 51.8913867,54.549758 L51.8913867,54.5559224 L47.7692761,54.5559224 L47.7692761,52.4957803 Z M56.2097285,56.2661816 C57.1444236,56.2661816 59.0987447,55.1811453 59.0987447,53.0791086 C59.0987447,50.0858696 53.5249343,49.8181778 52.6699188,49.8181778 L42.4003726,49.8181778 L42.4003726,63.5852966 L52.6699188,63.5852966 C57.6091456,63.5852966 59.5932609,62.0249219 59.5932609,59.4192366 C59.5932609,56.8135513 56.2097285,56.2661816 56.2097285,56.2661816 Z" id="Shape" fill="#292526"></path></g></g></svg>