<svg xmlns="http://www.w3.org/2000/svg" xmlns:xlink="http://www.w3.org/1999/xlink" width="109px" height="21px" viewBox="0 0 109 21"><title>New_Bloomberg_Logo</title><g id="Page-1" stroke="none" stroke-width="1" fill="none" fill-rule="evenodd"><g id="New_Bloomberg_Logo" transform="translate(0, 0.4)" fill="#000000" fill-rule="nonzero"><path d="M0,0 L7.95748943,0 C9.4732017,0 10.6099859,0.378928068 11.4520483,1.01047485 C12.3783169,1.76833098 12.8835543,2.86301207 12.8835543,4.21031187 C12.8835543,5.76812726 12.2520075,6.73649899 10.988914,7.32594265 L10.988914,7.41014889 C12.6730387,7.95748943 13.6414105,9.4732017 13.6414105,11.2836358 C13.6414105,13.0098637 12.9677606,14.3571635 11.8730795,15.1992258 C10.9468109,15.8728757 9.76792354,16.1675976 8.16800503,16.1675976 L0,16.1675976 L0,0 Z M7.15753018,6.3154678 C7.99959255,6.3154678 8.63113933,5.8523335 8.63113933,4.88396177 C8.63113933,3.95769316 7.99959255,3.49455885 7.11542706,3.49455885 L4.37872434,3.49455885 L4.37872434,6.27336468 L7.15753018,6.27336468 L7.15753018,6.3154678 Z M7.53645824,12.5888325 C8.50482997,12.5888325 9.22058299,11.9993888 9.22058299,10.9468109 C9.22058299,9.81002665 8.46272686,9.30478923 7.53645824,9.30478923 L4.42082746,9.30478923 L4.42082746,12.6309356 L7.53645824,12.6309356 L7.53645824,12.5888325 Z" id="Shape"></path><polygon id="Path" points="14.3571635 0 18.5253722 0 18.5253722 16.2097007 14.3571635 16.2097007"></polygon><path d="M19.3674346,10.4415734 C19.3674346,6.77860211 21.7252092,4.33662122 25.3881806,4.33662122 C29.0511519,4.33662122 31.3668234,6.82070523 31.3668234,10.4415734 C31.3668234,14.1045448 29.0511519,16.5465256 25.3881806,16.5465256 C21.7252092,16.5465256 19.3674346,14.1045448 19.3674346,10.4415734 Z M27.1986147,10.4415734 C27.1986147,8.42062374 26.5670679,7.15753018 25.3039743,7.15753018 C24.0408808,7.15753018 23.4514371,8.42062374 23.4514371,10.4415734 C23.4514371,12.4625231 24.0408808,13.7677198 25.3039743,13.7677198 C26.5670679,13.7256167 27.1986147,12.4625231 27.1986147,10.4415734 Z" id="Shape"></path><path d="M31.8299577,10.4415734 C31.8299577,6.77860211 34.1877324,4.33662122 37.8507037,4.33662122 C41.513675,4.33662122 43.7872434,6.77860211 43.7872434,10.4415734 C43.7872434,14.1045448 41.4715719,16.5465256 37.8086006,16.5465256 C34.1877324,16.5465256 31.8299577,14.1045448 31.8299577,10.4415734 Z M39.6611378,10.4415734 C39.6611378,8.42062374 39.029591,7.15753018 37.7664975,7.15753018 C36.5034039,7.15753018 35.9139602,8.42062374 35.9139602,10.4415734 C35.9139602,12.4625231 36.5034039,13.7677198 37.7664975,13.7677198 C39.029591,13.7256167 39.6611378,12.4625231 39.6611378,10.4415734 Z" id="Shape"></path><path d="M44.6293058,4.63134306 L48.5027927,4.63134306 L48.5027927,6.35757092 L48.586999,6.35757092 C49.3448551,5.01027112 50.3974331,4.29451811 52.0815578,4.29451811 C53.555167,4.29451811 54.6498481,5.01027112 55.1971886,6.27336468 L55.2813948,6.27336468 C56.2076634,4.75765241 57.4286539,4.29451811 58.8601599,4.29451811 C61.5547595,4.29451811 62.6915437,6.27336468 62.6915437,8.92586116 L62.6915437,16.1675976 L58.6496443,16.1675976 L58.6496443,9.64161418 C58.6496443,8.46272686 58.2707163,7.70487072 57.2602414,7.70487072 C56.2497666,7.70487072 55.7445291,8.63113933 55.7445291,9.89423289 L55.7445291,16.1675976 L51.7026297,16.1675976 L51.7026297,9.64161418 C51.7026297,8.46272686 51.3237017,7.70487072 50.3132268,7.70487072 C49.302752,7.70487072 48.7975146,8.63113933 48.7975146,9.89423289 L48.7975146,16.1675976 L44.6293058,16.1675976 C44.6293058,16.1675976 44.6293058,4.63134306 44.6293058,4.63134306 Z" id="Path"></path><path d="M67.7860211,14.6518853 L67.743918,14.6518853 L67.743918,16.1675976 L63.870431,16.1675976 L63.870431,0 L67.9123304,0 L67.9123304,5.81023038 L67.9965367,5.81023038 C68.7543928,4.79975553 69.8069708,4.25241499 71.2805799,4.25241499 C74.1856951,4.25241499 75.8698199,6.86280835 75.8698199,10.3573672 C75.8698199,14.2729572 74.0593858,16.5465256 71.0279612,16.5465256 C69.7648677,16.5465256 68.459671,15.957082 67.7860211,14.6518853 Z M71.7016111,10.3152641 C71.7016111,8.46272686 71.0279612,7.24173641 69.8069708,7.24173641 C68.5438772,7.24173641 67.7860211,8.46272686 67.7860211,10.3152641 C67.7860211,12.1678013 68.5859803,13.3887917 69.8069708,13.3887917 C71.0279612,13.3887917 71.7016111,12.2099044 71.7016111,10.3152641 Z" id="Shape"></path><path d="M76.3329542,10.3994703 C76.3329542,6.77860211 78.7328319,4.29451811 82.1852877,4.29451811 C83.9115155,4.29451811 85.2167122,4.84185865 86.2271871,5.81023038 C87.5744869,7.11542706 88.1639305,9.13637676 88.1218274,11.4941514 L80.3748536,11.4941514 C80.543266,12.9256574 81.2169159,13.6835136 82.4379064,13.6835136 C83.1536594,13.6835136 83.7852062,13.3466886 84.0378249,12.5888325 L87.9534149,12.5888325 C87.279765,15.241329 85.2167122,16.5465256 82.311597,16.5465256 C78.7328319,16.5044225 76.3329542,14.0624416 76.3329542,10.3994703 Z M80.3748536,9.17847987 L84.079928,9.17847987 C83.9957218,7.78907696 83.2378656,7.07332394 82.2694939,7.07332394 C81.1327097,7.03122082 80.5011629,7.83118008 80.3748536,9.17847987 Z" id="Shape"></path><path d="M92.7110673,6.61018963 L92.7952736,6.61018963 C93.637336,5.01027112 94.732017,4.37872434 96.12142,4.37872434 C96.4582449,4.37872434 96.6687605,4.42082746 96.7950699,4.5050337 L96.7950699,8.04169567 L96.7108636,8.04169567 C94.3109859,7.62066448 92.9215829,8.75744869 92.9215829,11.367842 L92.9215829,16.2097007 L88.8375804,16.2097007 L88.8375804,4.63134306 L92.7110673,4.63134306 L92.7110673,6.61018963 Z" id="Path"></path><path d="M97.216101,16.2097007 L101.131691,16.2097007 C101.300104,16.7149381 101.805341,17.1780724 102.773713,17.1780724 C104.078909,17.1780724 104.542044,16.3781132 104.542044,15.1571227 L104.542044,14.3150604 L104.457837,14.3150604 C103.826291,15.0729165 102.942125,15.620257 101.679032,15.620257 C99.1949476,15.620257 97.0055855,13.7677198 97.0055855,10.1468516 C97.0055855,6.82070523 98.7739164,4.25241499 101.468516,4.25241499 C103.026331,4.25241499 103.9526,4.88396177 104.584147,5.8523335 L104.668353,5.8523335 L104.668353,4.58923994 L108.54184,4.58923994 L108.54184,14.6097822 C108.54184,16.4623194 107.910293,17.8938254 106.941921,18.7358878 C105.931447,19.6200533 104.499941,19.9989814 102.857919,19.9989814 C99.7422882,20.0410845 97.5950291,18.7779909 97.216101,16.2097007 Z M104.710456,9.97843913 C104.710456,8.54693309 104.036806,7.36804577 102.857919,7.36804577 C101.721135,7.36804577 101.005382,8.37852062 101.005382,9.97843913 C101.005382,11.5362545 101.721135,12.6309356 102.857919,12.6309356 C103.994703,12.6309356 104.710456,11.4941514 104.710456,9.97843913 Z" id="Shape"></path></g></g></svg>