<svg xmlns="http://www.w3.org/2000/svg" xmlns:xlink="http://www.w3.org/1999/xlink" width="114px" height="26px" viewBox="0 0 114 26"><title>us-news</title><g id="Page-1" stroke="none" stroke-width="1" fill="none" fill-rule="evenodd"><g id="us-news" transform="translate(0, 0.2)" fill-rule="nonzero"><rect id="Rectangle" fill="#00549F" x="0.0188679245" y="0" width="113.132075" height="22.0377359"></rect><path d="M16.6792453,21.6792453 C12.6792453,21.6792453 9.67924529,20.1698114 9.67924529,16.4150943 L9.67924529,5.41509434 L13.1886792,5.41509434 L13.1886792,16.1132075 C13.1886792,17.8113207 14.4528302,18.7924529 16.754717,18.7924529 C18.7735849,18.7924529 20.1886792,17.7924529 20.1886792,16.1320755 L20.1886792,5.41509434 L23.6981132,5.41509434 L23.6981132,16.6226415 C23.6981132,20 20.7735849,21.6792453 16.6792453,21.6792453" id="Path" fill="#FFFFFF"></path><rect id="Rectangle" fill="#FFFFFF" x="22.8301886" y="18.2075471" width="3.13207547" height="3.26415094"></rect><path d="M33.5849056,21.6981132 C28.735849,21.6981132 26.9811321,20.2264151 26.3396226,18.2075471 C26.1698114,17.6792453 26.1132075,16.8867925 26.1132075,16.5660378 L29.735849,16.5660378 C29.735849,16.8490566 29.8301886,17.3396226 29.9622641,17.5849056 C30.4150944,18.5283019 31.4716981,18.9245282 33.6037736,18.9245282 C36.0377359,18.9245282 36.9056604,18.264151 36.9056604,17.1886792 C36.9056604,15.8679245 36.2264151,15.3962264 33.6415094,14.9245283 C33.1698114,14.8490566 32,14.6226415 31.2830189,14.4716981 C28.1509434,13.8867925 26.2264151,12.4528302 26.2264151,9.7735849 C26.2264151,7.05660378 28.4150944,5.2264151 33.1320755,5.2264151 C37.1509434,5.2264151 39.0566037,6.62264151 39.8490566,8.66037736 C40.0566037,9.18867925 40.2264151,9.79245283 40.2264151,10.2075472 L36.6037736,10.2075472 C36.6037736,10.0188679 36.509434,9.66037736 36.3773585,9.41509434 C35.9433962,8.52830189 35.0754717,8.05660378 33.0377359,8.05660378 C30.3773585,8.05660378 29.8490566,8.64150944 29.8490566,9.56603774 C29.8490566,10.754717 30.8113208,11.2075472 33.4339623,11.7358491 C34.245283,11.9056604 35.3018867,12.1132076 35.6603774,12.1886793 C38.8490566,12.7924529 40.509434,14.1132075 40.509434,16.8679245 C40.509434,19.735849 38.2075471,21.6981132 33.5849056,21.6981132" id="Path" fill="#FFFFFF"></path><rect id="Rectangle" fill="#FFFFFF" x="39.6981132" y="18.2075471" width="3.13207547" height="3.26415094"></rect><polygon id="Path" fill="#FFFFFF" points="53.735849 21.4716981 47.264151 10.6037736 47.264151 21.4716981 43.9245283 21.4716981 43.9245283 5.41509434 48 5.41509434 54.1886792 15.754717 54.1886792 5.41509434 57.5283019 5.41509434 57.5283019 21.4716981"></polygon><path d="M69.6981133,20.5849056 C68.6603774,21.245283 67.2264151,21.6603774 65.3018867,21.6603774 C62.6792452,21.6603774 60.5471697,20.8867925 59.3962264,19.0754717 C58.8113207,18.1509434 58.490566,16.9622641 58.490566,15.4716981 C58.490566,14.1132075 58.8679245,12.9056604 59.5283019,11.9622641 C60.6603774,10.3018868 62.7169811,9.33962264 65.3018867,9.33962264 C68.0188679,9.33962264 69.8679245,10.3207547 70.9245282,11.8679245 C71.8113207,13.1509434 72.1320755,14.8679245 71.9433962,16.6415094 L61.9056604,16.6415094 C61.9056604,17.1886792 62.1509434,17.5849056 62.5471697,18.0377359 C63.0377359,18.5849056 64.0188679,18.9245282 65.3018867,18.9245282 C66.264151,18.9245282 66.9811321,18.754717 67.4716981,18.5471698 C68.0943396,18.264151 68.3962264,17.8867925 68.4528302,17.6226415 L71.8301886,17.6226415 C71.5660377,18.754717 70.8867925,19.8301886 69.6981133,20.5849056 M67.9245282,13.0377359 C67.4339622,12.5471697 66.6037736,12.1320755 65.3207547,12.1320755 C64.0943396,12.1320755 63.1886792,12.4528302 62.6037736,12.9811321 C62.1886792,13.3396226 61.8679245,14.0566037 61.8679245,14.3962264 L68.490566,14.3962264 C68.509434,14.0377359 68.3584906,13.490566 67.9245282,13.0377359" id="Shape" fill="#FFFFFF"></path><path d="M88.7924529,21.4716981 L84.7169811,21.4716981 C84.7169811,21.4716981 82.3962264,14.6603774 82.3584906,14.2830189 C82.3396226,14.1320755 82.2075471,13.4339622 82.2075471,13.4339622 C82.2075471,13.4339622 82.0754718,14.1320755 82.0566038,14.264151 C82.0377359,14.6792452 79.6981133,21.4716981 79.6981133,21.4716981 L75.6037736,21.4716981 L71.3584906,9.62264151 L74.9622641,9.62264151 L77.8113208,18.4339623 L80.4150944,9.62264151 L84.245283,9.62264151 L86.9245283,18.4339623 L89.6981133,9.62264151 L93.0754718,9.62264151 L88.7924529,21.4716981 Z" id="Path" fill="#FFFFFF"></path><path d="M99.3962264,21.6792453 C95.3962264,21.6792453 93.490566,20.8867925 93,18.9433962 C92.8867925,18.4716981 92.8679245,18.1509434 92.8679245,17.754717 L96.2830189,17.754717 C96.2830189,17.9056604 96.3018867,18.1132075 96.3962264,18.3584906 C96.6037736,18.9245283 97.509434,19.0754717 99.3962264,19.0754717 C101.358491,19.0754717 101.962264,18.735849 101.962264,18.0377359 C101.962264,17.3584906 101.245283,17.2075471 99.509434,16.9622641 C99.0566037,16.9056604 97.6415094,16.6792453 96.9245282,16.5849056 C94.3207547,16.2264151 93.0754717,15.0754718 93.0754717,12.8113208 C93.0754717,10.6981132 94.9622641,9.32075471 98.7735849,9.32075471 C102.018868,9.32075471 104.075472,10.1698113 104.679245,11.8679245 C104.830189,12.3207547 104.886792,13.0566038 104.886792,13.2830189 L101.54717,13.2830189 C101.54717,13.1509434 101.490566,12.7924529 101.396226,12.6415094 C101.150943,12.3207547 100.528302,12.0377359 98.9056604,12.0377359 C97.0188679,12.0377359 96.4528302,12.3396226 96.4528302,12.9056604 C96.4528302,13.4150944 96.8301886,13.6226415 98.509434,13.8679245 C99.1886792,13.9622641 100.849057,14.2075471 101.264151,14.2830189 C104.09434,14.7169811 105.358491,15.7735849 105.358491,17.9811321 C105.339623,20.4339623 103.490566,21.6792453 99.3962264,21.6792453" id="Path" fill="#FFFFFF"></path><path d="M61.3773585,7.58490566 C61.4716981,7.45283019 61.5471698,7.28301886 61.5471698,7.09433962 L62.4528302,7.09433962 C62.4339623,7.49056604 62.2830189,7.8490566 62.0188679,8.09433962 C62.2264151,8.24528302 62.4716981,8.43396226 62.7169811,8.62264151 L61.490566,8.62264151 C61.4339623,8.58490566 61.3962264,8.52830189 61.3396226,8.49056604 C61.0943396,8.60377359 60.754717,8.64150944 60.4528302,8.64150944 C59.6792452,8.64150944 59,8.50943396 58.9622641,7.90566038 L58.9622641,7.73584906 C58.9622641,7.37735849 59.3207547,7.1509434 59.6981132,6.96226415 C59.509434,6.69811321 59.4339622,6.47169811 59.4339622,6.28301886 L59.4339622,6.11320755 C59.4528302,5.71698114 59.8490566,5.33962264 60.509434,5.33962264 C61.1320755,5.33962264 61.4716981,5.69811321 61.509434,6.09433962 L61.509434,6.24528302 C61.509434,6.66037736 61.1886792,6.94339622 60.8679245,7.13207548 C61.0188679,7.26415094 61.1886792,7.43396226 61.3773585,7.58490566 M59.9245282,7.79245282 C59.9245282,7.94339623 60.0754717,8 60.3962264,8 C60.490566,8 60.6037736,8 60.6792452,7.96226415 C60.490566,7.79245282 60.3018867,7.66037736 60.1698114,7.50943396 C60.0188679,7.62264151 59.9245282,7.69811321 59.9245282,7.79245282 M60.7169811,6.32075471 L60.7169811,6.26415094 C60.7169811,6.1509434 60.6603774,6.05660378 60.509434,6.05660378 C60.3584906,6.05660378 60.3018867,6.1509434 60.3018867,6.26415094 L60.3018867,6.35849056 C60.3018867,6.45283019 60.3584906,6.54716981 60.4339623,6.66037736 C60.5849056,6.56603774 60.6981132,6.45283019 60.7169811,6.32075471" id="Shape" fill="#FFFFFF"></path><path d="M67.5660378,8.64150944 L66.490566,8.64150944 C66.490566,8.64150944 66.0188679,6.7735849 66,6.67924529 C66,6.79245282 65.509434,8.64150944 65.509434,8.64150944 L64.4339622,8.64150944 L63.509434,5.41509434 L64.5660377,5.41509434 C64.5660377,5.41509434 65.0566037,7.41509434 65.0566037,7.50943396 C65.0566037,7.41509434 65.5283019,5.41509434 65.5283019,5.41509434 L66.5471698,5.41509434 C66.5471698,5.41509434 67.0377359,7.41509434 67.0377359,7.50943396 C67.0377359,7.41509434 67.5283019,5.41509434 67.5283019,5.41509434 L68.490566,5.41509434 L67.5660378,8.64150944 Z" id="Path" fill="#FFFFFF"></path><path d="M71.9622641,6.98113208 C71.9622641,8.11320755 71.4150944,8.67924529 70.245283,8.67924529 C69.0566038,8.67924529 68.5283019,8.09433962 68.5283019,7 C68.5283019,5.96226415 69.0566038,5.33962264 70.245283,5.33962264 C71.4528303,5.33962264 71.9622641,5.90566038 71.9622641,6.98113208 M70.9622641,7.01886793 C70.9622641,6.37735849 70.7924529,6.11320755 70.245283,6.11320755 C69.7169811,6.11320755 69.5283019,6.37735849 69.5283019,7.01886793 C69.5283019,7.69811321 69.7735849,7.9245283 70.245283,7.9245283 C70.6981133,7.9245283 70.9622641,7.73584906 70.9622641,7.01886793" id="Shape" fill="#FFFFFF"></path><path d="M75.3584906,7.03773585 C75.264151,7.20754718 75.1132075,7.32075471 74.9622641,7.33962264 L75.7169811,8.64150944 L74.6037736,8.64150944 L74.0377359,7.54716981 L73.3773585,7.54716981 L73.3773585,8.64150944 L72.3962264,8.64150944 L72.3962264,5.41509434 L74.4339622,5.41509434 C74.8679245,5.41509434 75.1509434,5.52830189 75.3018867,5.75471698 C75.4339623,5.9245283 75.490566,6.13207547 75.490566,6.43396226 C75.490566,6.67924529 75.4339623,6.88679245 75.3584906,7.03773585 M74.490566,6.30188679 C74.4528303,6.20754718 74.3584906,6.16981132 74.2075471,6.16981132 L73.3773585,6.16981132 L73.3773585,6.83018867 L74.2264151,6.83018867 C74.3396226,6.83018867 74.4528303,6.79245282 74.490566,6.71698114 C74.509434,6.66037736 74.5283019,6.58490566 74.5283019,6.50943396 C74.5283019,6.43396226 74.5283019,6.35849056 74.490566,6.30188679" id="Shape" fill="#FFFFFF"></path><polygon id="Path" fill="#FFFFFF" points="76.1698114 8.64150944 76.1698114 5.41509434 77.1698114 5.41509434 77.1698114 7.83018868 78.7169811 7.83018868 78.7169811 8.64150944"></polygon><path d="M81.0377359,8.64150944 L79.2264151,8.64150944 L79.2264151,5.41509434 L81,5.41509434 C81.5849056,5.41509434 81.9433962,5.54716981 82.1509434,5.83018867 C82.3396226,6.11320755 82.3962264,6.37735849 82.3962264,6.96226415 C82.3962264,7.64150944 82.3396226,7.90566038 82.1698114,8.16981133 C81.9433962,8.47169811 81.6226415,8.64150944 81.0377359,8.64150944 M81.4150944,6.96226415 C81.4150944,6.73584906 81.3962264,6.43396226 81.3207547,6.33962264 C81.1886792,6.20754718 81.0754717,6.16981132 80.8301886,6.16981132 L80.2075471,6.16981132 L80.2075471,7.86792452 L80.8301886,7.86792452 C81.0754717,7.86792452 81.2075471,7.81132075 81.3207547,7.67924529 C81.3962264,7.58490566 81.4150944,7.2264151 81.4150944,6.96226415" id="Shape" fill="#FFFFFF"></path><path d="M86.9622641,7.03773585 C86.8679245,7.20754718 86.7169811,7.32075471 86.5660377,7.33962264 L87.3207547,8.64150944 L86.2264151,8.64150944 L85.6603774,7.54716981 L85,7.54716981 L85,8.64150944 L84.0377359,8.64150944 L84.0377359,5.41509434 L86.0754717,5.41509434 C86.509434,5.41509434 86.7924529,5.52830189 86.9433962,5.75471698 C87.0754717,5.9245283 87.1320755,6.13207547 87.1320755,6.43396226 C87.1132075,6.67924529 87.0566037,6.88679245 86.9622641,7.03773585 M86.1132075,6.30188679 C86.0566037,6.20754718 85.9622641,6.16981132 85.8301886,6.16981132 L85,6.16981132 L85,6.83018867 L85.8490566,6.83018867 C85.9622641,6.83018867 86.0754717,6.79245282 86.1132075,6.71698114 C86.1320755,6.66037736 86.1509434,6.58490566 86.1509434,6.50943396 C86.1509434,6.43396226 86.1320755,6.35849056 86.1132075,6.30188679" id="Shape" fill="#FFFFFF"></path><polygon id="Path" fill="#FFFFFF" points="87.8301886 8.64150944 87.8301886 5.41509434 90.5849056 5.41509434 90.5849056 6.16981132 88.8113207 6.16981132 88.8113207 6.64150944 90.509434 6.64150944 90.509434 7.39622641 88.8113207 7.39622641 88.8113207 7.88679245 90.6037736 7.88679245 90.6037736 8.64150944"></polygon><path d="M94.1132075,7.30188679 C93.9245282,7.50943396 93.6226415,7.62264151 93.2264151,7.62264151 C93.1132075,7.62264151 92.2264151,7.62264151 92.2264151,7.62264151 L92.2264151,8.64150944 L91.2264151,8.64150944 L91.2264151,5.41509434 L93.2075471,5.41509434 C93.6037736,5.41509434 93.8679245,5.50943396 94.0566037,5.67924529 C94.245283,5.8490566 94.3396226,6.11320755 94.3396226,6.52830189 C94.3396226,6.86792452 94.264151,7.13207548 94.1132075,7.30188679 M93.3018867,6.30188679 C93.245283,6.20754718 93.1509434,6.1509434 93,6.1509434 L92.2075471,6.1509434 L92.2075471,6.88679245 L92.9811321,6.88679245 C93.1698114,6.88679245 93.264151,6.83018867 93.3018867,6.73584906 C93.3396226,6.67924529 93.3396226,6.62264151 93.3396226,6.52830189 C93.3584906,6.43396226 93.3396226,6.35849056 93.3018867,6.30188679" id="Shape" fill="#FFFFFF"></path><path d="M98.1320755,6.98113208 C98.1320755,8.11320755 97.5849056,8.67924529 96.4150944,8.67924529 C95.2264151,8.67924529 94.6981133,8.09433962 94.6981133,7 C94.6981133,5.96226415 95.2264151,5.33962264 96.4150944,5.33962264 C97.6415094,5.33962264 98.1320755,5.90566038 98.1320755,6.98113208 M97.1320755,7.01886793 C97.1320755,6.37735849 96.9622641,6.11320755 96.4150944,6.11320755 C95.8867925,6.11320755 95.6981133,6.37735849 95.6981133,7.01886793 C95.6981133,7.69811321 95.9433963,7.9245283 96.4150944,7.9245283 C96.8679245,7.9245283 97.1320755,7.73584906 97.1320755,7.01886793" id="Shape" fill="#FFFFFF"></path><path d="M101.54717,7.03773585 C101.45283,7.20754718 101.301887,7.32075471 101.150943,7.33962264 L101.90566,8.64150944 L100.792453,8.64150944 L100.226415,7.54716981 L99.5660377,7.54716981 L99.5660377,8.64150944 L98.5849056,8.64150944 L98.5849056,5.41509434 L100.622642,5.41509434 C101.056604,5.41509434 101.339623,5.52830189 101.490566,5.75471698 C101.622642,5.9245283 101.679245,6.13207547 101.679245,6.43396226 C101.679245,6.67924529 101.622642,6.88679245 101.54717,7.03773585 M100.679245,6.30188679 C100.622642,6.20754718 100.528302,6.16981132 100.396226,6.16981132 L99.5660377,6.16981132 L99.5660377,6.83018867 L100.415094,6.83018867 C100.528302,6.83018867 100.641509,6.79245282 100.679245,6.71698114 C100.698113,6.66037736 100.716981,6.58490566 100.716981,6.50943396 C100.716981,6.43396226 100.716981,6.35849056 100.679245,6.30188679" id="Shape" fill="#FFFFFF"></path><polygon id="Path" fill="#FFFFFF" points="104 6.18867925 104 8.64150944 103 8.64150944 103 6.18867925 101.981132 6.18867925 101.981132 5.41509434 105.037736 5.41509434 105.037736 6.18867925"></polygon><rect id="Rectangle" fill="#FFFFFF" x="0.037735849" y="21.1320755" width="113.132075" height="1.25"></rect><rect id="Rectangle" fill="#E41319" x="0" y="22" width="113.207547" height="3"></rect></g></g></svg>